<?xml version="1.0" encoding="utf-8"?>
<!-- Generator: Adobe Illustrator 21.1.0, SVG Export Plug-In . SVG Version: 6.00 Build 0)  -->
<svg version="1.1" id="Layer_1" xmlns="http://www.w3.org/2000/svg" xmlns:xlink="http://www.w3.org/1999/xlink" x="0px" y="0px"
	 viewBox="0 0 500 388.9" style="enable-background:new 0 0 500 388.9;" xml:space="preserve">
<style type="text/css">
	.st0{display:none;}
	.st1{display:inline;}
	.st2{fill:#107C10;}
</style>
<g class="st0">
	<path class="st1" d="M304.9,188.7c-3.1,0-6.4-0.5-9.8-1.6c-3.8-1.2-7-3-9.5-5.4l-57.2-57.2c-1.2-1.2-2.7-2.2-4.6-3.2
		c-2.2-1.1-4.5-2-6.9-2.7c-2.5-0.7-5-1.3-7.5-1.6c-2.5-0.3-4.8-0.5-6.8-0.5h-90.3c-2,0-4.3,0.2-6.8,0.5s-5,0.9-7.5,1.6
		c-2.4,0.7-4.7,1.6-6.9,2.7c-1.9,1-3.5,2-4.6,3.2l-57.2,57.2c-2.5,2.5-5.6,4.3-9.5,5.4c-3.4,1-6.7,1.6-9.8,1.6
		c-8.5,0-16.1-2.1-22.7-6.2c-6.3-3.9-11.7-9.1-15.9-15.3c-4.1-6-7.3-12.8-9.4-20.2c-2.1-7.3-3.1-14.5-3.1-21.6
		c0-8.2,0.6-16.1,1.7-23.7c1.1-7.3,2.7-14.8,4.9-22.3V79L8.4-37.5l0.3-0.3c2.4-5.3,5.9-9.8,10.3-13.3V-64l3.2-1.7
		C33-71.3,43.7-75.4,54-78c10.6-2.6,22.1-4,34.3-4c4.7,0,9.1,0.8,13.1,2.3c3.5,1.3,6.8,2.8,9.8,4.4c2.8,1.5,5.5,2.8,7.9,4
		c1.8,0.9,3.5,1.3,5.4,1.3h66.2c1.9,0,3.6-0.4,5.4-1.3c2.5-1.2,5.1-2.6,7.9-4c3-1.6,6.3-3.1,9.8-4.4c3.9-1.5,8.3-2.3,13.1-2.3
		c12.2,0,23.7,1.3,34.1,3.9s21.1,6.8,31.9,12.3l3.2,1.7v12.8c2,1.6,3.8,3.4,5.5,5.4c2.5,3,4.4,6.3,5.6,9.7l42.1,114.5
		c2.7,7.2,4.5,15.1,5.5,23.7c1,8.3,1.5,16.2,1.5,23.5c0,7-1.1,14.3-3.1,21.6c-2.1,7.4-5.3,14.1-9.4,20.2
		c-4.2,6.2-9.6,11.3-15.9,15.3C321,186.7,313.4,188.7,304.9,188.7z M202.6,86.5c3.4,0,7.3,0.3,11.6,1c4.2,0.7,8.4,1.7,12.6,2.9
		c4.2,1.3,8.3,2.9,12.1,4.9c4.1,2.1,7.5,4.5,10.1,7.2l56.2,56.2c3.2,0,5.9-0.9,8.1-2.7c2.7-2.1,5.1-4.9,6.9-8.1
		c2-3.4,3.4-7.2,4.3-11.2c1-4.1,1.4-7.9,1.4-11.1c0-2.9-0.1-6-0.3-9.3c-0.2-3.2-0.5-6.5-0.9-9.8s-1-6.5-1.6-9.6
		c-0.6-3-1.4-5.8-2.3-8.4l-42-113.9c-0.5-1.4-1.2-2.2-2.3-2.8c-2.3-1.2-4.6-2.2-6.9-3.2l-3.8-1.5v-12.5c-5.6-2.2-11.3-3.8-17.2-4.8
		c-7.3-1.3-14.7-1.9-21.9-1.9c-1.9,0-3.7,0.4-5.5,1.3c-2.6,1.2-5.2,2.6-7.9,4c-3,1.6-6.3,3.1-9.7,4.4c-3.9,1.5-8.3,2.3-13,2.3h-66.2
		c-4.7,0-9.1-0.8-13-2.3c-3.4-1.3-6.6-2.8-9.7-4.4c-2.7-1.4-5.4-2.8-7.9-4c-1.8-0.9-3.6-1.3-5.5-1.3c-7.3,0-14.6,0.6-21.9,1.9
		c-5.9,1-11.6,2.6-17.2,4.8v12.5l-3.8,1.5c-2.3,0.9-4.6,2-6.9,3.2c-1.1,0.6-1.8,1.4-2.3,2.7l-42.1,114c-0.9,2.6-1.7,5.5-2.3,8.4
		c-0.7,3.1-1.2,6.3-1.6,9.6c-0.4,3.3-0.7,6.6-0.9,9.8c-0.2,3.3-0.3,6.4-0.3,9.3c0,3.3,0.5,7,1.4,11.1c0.9,4,2.4,7.7,4.3,11.2
		c1.9,3.2,4.2,6,6.9,8.1c2.3,1.8,4.9,2.6,8.1,2.7L66,102.5c2.7-2.7,6.1-5.1,10.1-7.2c3.8-2,7.9-3.6,12.1-4.9
		c4.1-1.3,8.3-2.2,12.5-2.9c4.2-0.7,8.1-1,11.7-1H202.6z M154.5,11.3c-4.8,0-9.2-1.8-12.7-5.3s-5.3-7.9-5.3-12.7s1.8-9.2,5.3-12.7
		s7.9-5.3,12.7-5.3s9.2,1.8,12.7,5.3s5.3,7.9,5.3,12.7s-1.8,9.2-5.3,12.7C163.7,9.4,159.3,11.3,154.5,11.3z"/>
</g>
<g id="Artwork_15">
	<g>
		<g>
			<g>
				<g>
					<path class="st2" d="M439.5,367c-7.8,0-15.3-6.1-54.9-42.9c-12.5-11.6-29.6-27.5-33.6-30c-1.6-1-3.1-1.9-4.6-2.8
						c-6.7-4.3-11-7.1-41.2-7.5c-31.8-0.5-51.5-0.2-55.2-0.1c-4.2-0.1-23.9-0.3-55.7,0.1c-30.2,0.4-34.5,3.2-41.1,7.5
						c-1.4,0.9-2.9,1.9-4.7,2.8c-3.9,2.4-21.1,18.3-33.6,30c-42.7,39.7-48,43.6-56.7,42.8c-10.2-1-29.6-9-41.3-26.8
						c-13.8-20.9-16.3-46.2-8.9-87.2c8-43.9,43.4-158.3,52.4-175.9c2.5-5,7.1-9.4,14.2-13.7c2.6-10.8,4.9-15.4,9.8-18.2l0.9-0.6
						c5.4-3.4,21.8-14,38.3-17.4c0.4-0.1,39.8-8.5,51.1-3.4c0.9,0.4,2.3,1.1,4,1.9c3.1,1.5,11.2,5.5,14.3,6.5l11.1-0.1
						c0,0,21.9,0.1,45.7,0.1c23.7,0,45.6-0.1,45.6-0.1h11.5c3.3-1.2,10.8-4.9,13.9-6.3c1.8-0.8,3.2-1.5,4.2-1.9
						c11.3-5.1,50.7,3.3,51.1,3.3c16.5,3.5,32.9,14,38.3,17.4l1,0.6c4.9,2.8,7.1,7.2,9.7,18.2c7.1,4.3,11.6,8.7,14.2,13.7
						c8.9,17.4,44.3,131.7,52.4,175.9l0,0c7.4,41,4.9,66.3-8.9,87.2c-11.8,17.8-31.2,25.8-41.4,26.8C440.7,367,440.1,367,439.5,367z
						 M102.1,66.2c-0.5,1.8-1.3,4.8-2.2,9l-1.4,6.4l-5.9,2.9c-6.6,3.3-8.2,5.3-8.2,5.3C77.7,103,42.7,214.6,34.8,257.7
						c-7.5,41.3-2.1,56.8,4.9,67.3c5.4,8.1,13.3,12,17.8,13.8c7.9-6,26.1-23,38.8-34.7c20.4-19,32.3-30,38.3-33.4
						c1.4-0.8,2.5-1.6,3.7-2.3c10.9-7,19.4-11.3,55.6-11.8c32.2-0.5,52.3-0.2,56.1-0.1c3.2-0.1,23.4-0.3,55.6,0.1
						c36.1,0.5,44.6,4.9,55.6,11.8c1.1,0.7,2.3,1.5,3.7,2.3c6,3.5,17.8,14.5,38.3,33.4c12.7,11.7,30.9,28.6,38.8,34.7
						c4.6-1.6,12.6-5.7,17.9-13.8c6.9-10.5,12.2-25.9,4.8-67.3c-7.9-43.2-42.8-154.6-49.8-168.3c0.1,0.2-1.7-1.8-8-5l-5.9-2.9
						l-1.4-6.4c-1-4.5-1.7-7.3-2.2-9c-10.7-6.7-19.8-10.9-27.1-12.5c-13.7-2.9-30.3-4.8-35.6-4.6c-0.6,0.3-1.3,0.6-2,1
						c-11.9,5.8-18.1,8.5-22.8,9c-1.3,0.2-3,0.2-14.4,0.2l-15,0.1v-0.2c-8.3,0-19.3,0.1-30.8,0.1c-11.3,0-22.2-0.1-30.5-0.1l0,0
						l-15,0.2c-11.8,0-13.2-0.1-14.6-0.3c-4.5-0.5-10.6-3.1-22.8-9c-0.7-0.3-1.3-0.7-1.9-0.9c-5.4-0.2-21.9,1.6-35.5,4.6
						C122,55.4,112.8,59.5,102.1,66.2z M401.1,68.5c0.1,0.1,0.3,0.2,0.4,0.2C401.4,68.7,401.2,68.6,401.1,68.5z M98.3,68.6
						c0,0-0.1,0-0.1,0.1C98.3,68.6,98.3,68.6,98.3,68.6z M165.8,49.3L165.8,49.3L165.8,49.3z"/>
				</g>
			</g>
			<g>
				<g>
					<path class="st2" d="M252.2,130.6c-12.6,0-22.7-10.2-22.7-22.8s10.1-22.7,22.7-22.7s22.7,10.1,22.7,22.7
						C275,120.4,264.8,130.6,252.2,130.6"/>
				</g>
			</g>
		</g>
	</g>
</g>
</svg>
