<?xml version="1.0" encoding="utf-8"?>
<!-- Generator: Adobe Illustrator 21.1.0, SVG Export Plug-In . SVG Version: 6.00 Build 0)  -->
<svg version="1.1" id="Layer_1" xmlns="http://www.w3.org/2000/svg" xmlns:xlink="http://www.w3.org/1999/xlink" x="0px" y="0px"
	 viewBox="0 0 500 388.9" style="enable-background:new 0 0 500 388.9;" xml:space="preserve">
<style type="text/css">
	.st0{display:none;}
	.st1{display:inline;}
	.st2{clip-path:url(#SVGID_2_);}
	.st3{clip-path:url(#SVGID_6_);}
	.st4{clip-path:url(#SVGID_7_);}
	.st5{clip-path:url(#SVGID_8_);}
	.st6{fill:#107C10;}
</style>
<g class="st0">
	<path class="st1" d="M304.9,188.7c-3.1,0-6.4-0.5-9.8-1.6c-3.8-1.2-7-3-9.5-5.4l-57.2-57.2c-1.2-1.2-2.7-2.2-4.6-3.2
		c-2.2-1.1-4.5-2-6.9-2.7c-2.5-0.7-5-1.3-7.5-1.6c-2.5-0.3-4.8-0.5-6.8-0.5h-90.3c-2,0-4.3,0.2-6.8,0.5s-5,0.9-7.5,1.6
		c-2.4,0.7-4.7,1.6-6.9,2.7c-1.9,1-3.5,2-4.6,3.2l-57.2,57.2c-2.5,2.5-5.6,4.3-9.5,5.4c-3.4,1-6.7,1.6-9.8,1.6
		c-8.5,0-16.1-2.1-22.7-6.2c-6.3-3.9-11.7-9.1-15.9-15.3c-4.1-6-7.3-12.8-9.4-20.2c-2.1-7.3-3.1-14.5-3.1-21.6
		c0-8.2,0.6-16.1,1.7-23.7c1.1-7.3,2.7-14.8,4.9-22.3V79L8.4-37.5l0.3-0.3c2.4-5.3,5.9-9.8,10.3-13.3V-64l3.2-1.7
		C33-71.3,43.7-75.4,54-78c10.6-2.6,22.1-4,34.3-4c4.7,0,9.1,0.8,13.1,2.3c3.5,1.3,6.8,2.8,9.8,4.4c2.8,1.5,5.5,2.8,7.9,4
		c1.8,0.9,3.5,1.3,5.4,1.3h66.2c1.9,0,3.6-0.4,5.4-1.3c2.5-1.2,5.1-2.6,7.9-4c3-1.6,6.3-3.1,9.8-4.4c3.9-1.5,8.3-2.3,13.1-2.3
		c12.2,0,23.7,1.3,34.1,3.9s21.1,6.8,31.9,12.3l3.2,1.7v12.8c2,1.6,3.8,3.4,5.5,5.4c2.5,3,4.4,6.3,5.6,9.7l42.1,114.5
		c2.7,7.2,4.5,15.1,5.5,23.7c1,8.3,1.5,16.2,1.5,23.5c0,7-1.1,14.3-3.1,21.6c-2.1,7.4-5.3,14.1-9.4,20.2
		c-4.2,6.2-9.6,11.3-15.9,15.3C321,186.7,313.4,188.7,304.9,188.7z M202.6,86.5c3.4,0,7.3,0.3,11.6,1c4.2,0.7,8.4,1.7,12.6,2.9
		c4.2,1.3,8.3,2.9,12.1,4.9c4.1,2.1,7.5,4.5,10.1,7.2l56.2,56.2c3.2,0,5.9-0.9,8.1-2.7c2.7-2.1,5.1-4.9,6.9-8.1
		c2-3.4,3.4-7.2,4.3-11.2c1-4.1,1.4-7.9,1.4-11.1c0-2.9-0.1-6-0.3-9.3c-0.2-3.2-0.5-6.5-0.9-9.8s-1-6.5-1.6-9.6
		c-0.6-3-1.4-5.8-2.3-8.4l-42-113.9c-0.5-1.4-1.2-2.2-2.3-2.8c-2.3-1.2-4.6-2.2-6.9-3.2l-3.8-1.5v-12.5c-5.6-2.2-11.3-3.8-17.2-4.8
		c-7.3-1.3-14.7-1.9-21.9-1.9c-1.9,0-3.7,0.4-5.5,1.3c-2.6,1.2-5.2,2.6-7.9,4c-3,1.6-6.3,3.1-9.7,4.4c-3.9,1.5-8.3,2.3-13,2.3h-66.2
		c-4.7,0-9.1-0.8-13-2.3c-3.4-1.3-6.6-2.8-9.7-4.4c-2.7-1.4-5.4-2.8-7.9-4c-1.8-0.9-3.6-1.3-5.5-1.3c-7.3,0-14.6,0.6-21.9,1.9
		c-5.9,1-11.6,2.6-17.2,4.8v12.5l-3.8,1.5c-2.3,0.9-4.6,2-6.9,3.2c-1.1,0.6-1.8,1.4-2.3,2.7l-42.1,114c-0.9,2.6-1.7,5.5-2.3,8.4
		c-0.7,3.1-1.2,6.3-1.6,9.6c-0.4,3.3-0.7,6.6-0.9,9.8c-0.2,3.3-0.3,6.4-0.3,9.3c0,3.3,0.5,7,1.4,11.1c0.9,4,2.4,7.7,4.3,11.2
		c1.9,3.2,4.2,6,6.9,8.1c2.3,1.8,4.9,2.6,8.1,2.7L66,102.5c2.7-2.7,6.1-5.1,10.1-7.2c3.8-2,7.9-3.6,12.1-4.9
		c4.1-1.3,8.3-2.2,12.5-2.9c4.2-0.7,8.1-1,11.7-1H202.6z M154.5,11.3c-4.8,0-9.2-1.8-12.7-5.3s-5.3-7.9-5.3-12.7s1.8-9.2,5.3-12.7
		s7.9-5.3,12.7-5.3s9.2,1.8,12.7,5.3s5.3,7.9,5.3,12.7s-1.8,9.2-5.3,12.7C163.7,9.4,159.3,11.3,154.5,11.3z"/>
</g>
<g id="MDF_Family">
	<defs>
		<rect id="SVGID_1_" x="38.2" y="2.2" width="423.5" height="384.6"/>
	</defs>
	<clipPath id="SVGID_2_">
		<use xlink:href="#SVGID_1_"  style="overflow:visible;"/>
	</clipPath>
	<g class="st2">
		<g>
			<defs>
				<rect id="SVGID_3_" x="38.2" y="2.2" width="423.5" height="384.6"/>
			</defs>
			<defs>
				<rect id="SVGID_4_" x="38.2" y="2.2" width="423.5" height="384.6"/>
			</defs>
			<defs>
				<rect id="SVGID_5_" x="38.2" y="2.2" width="423.5" height="384.6"/>
			</defs>
			<clipPath id="SVGID_6_">
				<use xlink:href="#SVGID_3_"  style="overflow:visible;"/>
			</clipPath>
			<clipPath id="SVGID_7_" class="st3">
				<use xlink:href="#SVGID_4_"  style="overflow:visible;"/>
			</clipPath>
			<clipPath id="SVGID_8_" class="st4">
				<use xlink:href="#SVGID_5_"  style="overflow:visible;"/>
			</clipPath>
			<g class="st5">
				<g>
					<path class="st6" d="M434.1,386.9c-5.4,0-9.3-3.6-25.1-18.3c-4.6-4.2-10.8-10-12.4-11.2c-0.5-0.3-1.1-0.7-1.7-1.1
						c-1.7-1.1-2.9-1.9-13.3-2c-11.1-0.2-18.6-0.1-21.5,0c-3.2,0-10.7-0.1-21.8,0c-10.2,0.1-11.5,0.9-13.3,2c-0.6,0.4-1.2,0.8-2,1.2
						c-1.4,1-7.7,6.8-12.2,11c-17.2,16-20.2,18.8-26.6,18.2c-6.1-0.6-15-5-20.3-12.9c-6.3-9.5-7.5-20.6-4.3-38.3
						c3.3-18.1,17.4-63.3,21-70.6c1.2-2.3,3-4.5,5.7-6.3c1-3.5,2.5-6.6,6-8.6c2.4-1.5,9.5-6.1,17-7.7c6.5-1.4,18.1-3.3,23.5-1
						l1.7,0.8c0.9,0.4,2.9,1.4,4.1,1.9h3.4c0,0,8.6,0,17.9,0.1c9.3,0,17.9-0.1,17.9-0.1h3.4c1.3-0.5,3.2-1.5,4-1.9l1.7-0.8
						c5.4-2.4,17.1-0.4,23.6,0.9c7.5,1.6,14.6,6.2,16.9,7.6c3.4,2,5.1,5.1,6.1,8.6c2.6,1.9,4.5,3.9,5.7,6.3c4,7.9,18,53.6,21,70.6
						l0,0c3.2,17.7,1.9,28.7-4.3,38.2c-5.4,8.1-14.3,12.4-20.3,13C435,386.8,434.5,386.9,434.1,386.9 M368.2,332.1
						c3.6,0,8.1,0,13.5,0.1c14.3,0.2,18.9,1.8,24.8,5.6c0.4,0.3,0.8,0.5,1.3,0.8c2.7,1.6,6.6,5.1,16,13.9c3.4,3.2,8.6,8,12.1,11
						c0.6-0.5,1.2-1.1,1.7-1.8c1.4-2.1,3.9-6.1,1-22.4c-2.9-16.2-15.2-55.1-18.5-63.4c-0.3-0.2-0.6-0.4-1.1-0.6l-4.7-2.3l-1.1-5.1
						c-0.1-0.4-0.2-0.7-0.2-1.1c-3.4-2-5.7-2.7-7-3c-4.3-0.9-9.2-1.5-11.6-1.6c-5.2,2.5-7.8,3.5-10.4,3.8c-0.7,0.1-1.4,0.1-6.2,0.1
						h-11.9V266c-3.8,0-8.3,0-12.1,0h-11.8c-4.8,0-5.6,0-6.5-0.2c-2.3-0.2-5-1.3-10.1-3.8c-2.3,0.1-7.3,0.7-11.6,1.6
						c-1.3,0.3-3.5,1-7,3c-0.1,0.4-0.2,0.8-0.2,1.1l-1.1,5.1l-4.7,2.3c-0.5,0.2-0.9,0.5-1.2,0.6c-3.3,8.4-15.6,47.3-18.5,63.4
						c-2.9,16.3-0.3,20.2,1.1,22.4c0.5,0.7,1.1,1.3,1.7,1.8c3.4-3,8.6-7.8,12.1-11c9.4-8.8,13.3-12.2,16-13.9
						c0.5-0.3,0.9-0.5,1.3-0.8c5.8-3.7,10.5-5.4,24.8-5.6c11.4-0.2,19.2-0.1,22.2,0C361.2,332.2,364.2,332.1,368.2,332.1
						 M415.8,268.6c0.2,0.1,0.4,0.3,0.6,0.4L415.8,268.6z M303.6,268.6L303,269C303.2,268.8,303.4,268.7,303.6,268.6"/>
				</g>
			</g>
			<g class="st5">
				<g>
					<path class="st6" d="M360.7,288.4c-5,0-8.9-4-8.9-8.9c0-5,3.9-8.9,8.9-8.9c5,0,8.9,3.9,8.9,8.9
						C369.6,284.4,365.6,288.4,360.7,288.4"/>
				</g>
			</g>
			<g class="st5">
				<g>
					<path class="st6" d="M325.6,134.3c8.3,4.1,15.7,9.4,22.4,15.6c6.7,6.2,12.3,13,17.1,20.5c4.7,7.6,8.3,15.7,10.8,24.4
						c2.5,8.7,3.8,17.7,3.8,27h-24.4c0-10-1.9-19.5-5.8-28.4c-3.8-8.9-9.1-16.6-15.7-23.3c-6.6-6.6-14.4-11.8-23.3-15.7
						c-8.9-3.8-18.4-5.8-28.4-5.8c-10,0-19.5,1.9-28.4,5.8c-8.9,3.8-16.7,9.1-23.3,15.7s-11.8,14.4-15.7,23.3
						c-3.8,8.9-5.8,18.4-5.8,28.4c0,11.5-2.6,22.6-7.9,33c-5.3,10.4-12.5,19-21.8,25.9c8.3,4.1,15.7,9.4,22.4,15.6
						c6.7,6.2,12.3,13,17.1,20.5c4.7,7.6,8.3,15.7,10.8,24.4s3.8,17.7,3.8,27h-24.4c0-10-1.9-19.5-5.8-28.4s-9.1-16.6-15.7-23.3
						c-6.6-6.6-14.4-11.8-23.3-15.7c-8.9-3.8-18.4-5.8-28.4-5.8c-10,0-19.5,1.9-28.4,5.8c-8.9,3.8-16.7,9.1-23.3,15.7
						c-6.6,6.6-11.8,14.4-15.7,23.3s-5.8,18.4-5.8,28.4H38.2c0-9.3,1.3-18.3,3.8-27c2.5-8.7,6.2-16.8,10.8-24.4
						c4.7-7.6,10.4-14.4,17.1-20.5c6.7-6.2,14.2-11.3,22.4-15.6c-9.3-6.9-16.6-15.5-21.8-25.9c-5.3-10.4-7.9-21.4-7.9-33
						c0-10,1.9-19.5,5.8-28.4c3.8-8.9,9.1-16.6,15.7-23.3c6.6-6.6,14.4-11.8,23.3-15.7c8.9-3.8,18.3-5.8,28.4-5.8
						c11.5,0,22.6,2.6,33,7.9s19,12.5,25.9,21.8c4.9-9.5,11-18,18.5-25.5c7.5-7.5,16-13.7,25.5-18.5c-9.3-6.9-16.6-15.5-21.8-25.9
						s-7.9-21.4-7.9-33c0-10,1.9-19.5,5.8-28.4s9.1-16.7,15.7-23.3c6.6-6.6,14.4-11.8,23.3-15.7c8.9-3.8,18.4-5.8,28.4-5.8
						c10,0,19.5,1.9,28.4,5.8c8.9,3.8,16.7,9.1,23.3,15.7c6.6,6.6,11.8,14.4,15.7,23.3s5.8,18.3,5.8,28.4c0,11.5-2.6,22.6-7.9,33
						C342.2,118.8,334.9,127.4,325.6,134.3 M135.8,270.5c6.6,0,12.8-1.3,18.9-3.9c6-2.6,11.1-6.1,15.6-10.5
						c4.3-4.3,7.9-9.5,10.5-15.5c2.6-5.9,3.9-12.2,3.9-18.9c0-6.6-1.3-12.8-3.9-18.9c-2.6-6-6.1-11.1-10.5-15.6
						c-4.3-4.3-9.6-7.9-15.6-10.5c-6-2.6-12.2-3.9-18.9-3.9c-6.8,0-13,1.3-18.9,3.9c-5.9,2.6-11,6.1-15.5,10.5
						c-4.3,4.3-7.9,9.6-10.5,15.6S87,215,87,221.7c0,6.8,1.3,13,3.9,18.9s6.1,11,10.5,15.5c4.3,4.3,9.5,7.9,15.5,10.5
						C122.8,269.2,129.1,270.5,135.8,270.5 M233.5,75.4c0,6.8,1.3,13,3.9,19c2.6,5.9,6.1,11,10.5,15.5c4.3,4.3,9.5,7.9,15.5,10.5
						c5.9,2.6,12.2,3.9,18.9,3.9c6.6,0,12.8-1.3,18.8-3.9c6-2.6,11.1-6.1,15.6-10.5c4.3-4.3,7.9-9.5,10.5-15.5
						c2.6-5.9,3.9-12.2,3.9-19c0-6.6-1.3-12.8-3.9-18.8c-2.6-6-6.1-11.1-10.5-15.6c-4.3-4.3-9.6-7.9-15.6-10.5
						c-6-2.6-12.2-3.9-18.8-3.9c-6.8,0-13,1.3-18.9,3.9c-5.9,2.6-11,6.1-15.5,10.5c-4.3,4.3-7.9,9.6-10.5,15.6
						C234.7,62.4,233.5,68.7,233.5,75.4"/>
				</g>
			</g>
		</g>
	</g>
</g>
</svg>
