<?xml version="1.0" encoding="utf-8"?>
<!-- Generator: Adobe Illustrator 21.1.0, SVG Export Plug-In . SVG Version: 6.00 Build 0)  -->
<svg version="1.1" id="Layer_1" xmlns="http://www.w3.org/2000/svg" xmlns:xlink="http://www.w3.org/1999/xlink" x="0px" y="0px"
	 viewBox="0 0 500 388.9" style="enable-background:new 0 0 500 388.9;" xml:space="preserve">
<style type="text/css">
	.st0{display:none;}
	.st1{display:inline;}
	.st2{fill:#107C10;}
</style>
<g class="st0">
	<path class="st1" d="M304.9,188.7c-3.1,0-6.4-0.5-9.8-1.6c-3.8-1.2-7-3-9.5-5.4l-57.2-57.2c-1.2-1.2-2.7-2.2-4.6-3.2
		c-2.2-1.1-4.5-2-6.9-2.7c-2.5-0.7-5-1.3-7.5-1.6c-2.5-0.3-4.8-0.5-6.8-0.5h-90.3c-2,0-4.3,0.2-6.8,0.5s-5,0.9-7.5,1.6
		c-2.4,0.7-4.7,1.6-6.9,2.7c-1.9,1-3.5,2-4.6,3.2l-57.2,57.2c-2.5,2.5-5.6,4.3-9.5,5.4c-3.4,1-6.7,1.6-9.8,1.6
		c-8.5,0-16.1-2.1-22.7-6.2c-6.3-3.9-11.7-9.1-15.9-15.3c-4.1-6-7.3-12.8-9.4-20.2c-2.1-7.3-3.1-14.5-3.1-21.6
		c0-8.2,0.6-16.1,1.7-23.7c1.1-7.3,2.7-14.8,4.9-22.3V79L8.4-37.5l0.3-0.3c2.4-5.3,5.9-9.8,10.3-13.3V-64l3.2-1.7
		C33-71.3,43.7-75.4,54-78c10.6-2.6,22.1-4,34.3-4c4.7,0,9.1,0.8,13.1,2.3c3.5,1.3,6.8,2.8,9.8,4.4c2.8,1.5,5.5,2.8,7.9,4
		c1.8,0.9,3.5,1.3,5.4,1.3h66.2c1.9,0,3.6-0.4,5.4-1.3c2.5-1.2,5.1-2.6,7.9-4c3-1.6,6.3-3.1,9.8-4.4c3.9-1.5,8.3-2.3,13.1-2.3
		c12.2,0,23.7,1.3,34.1,3.9s21.1,6.8,31.9,12.3l3.2,1.7v12.8c2,1.6,3.8,3.4,5.5,5.4c2.5,3,4.4,6.3,5.6,9.7l42.1,114.5
		c2.7,7.2,4.5,15.1,5.5,23.7c1,8.3,1.5,16.2,1.5,23.5c0,7-1.1,14.3-3.1,21.6c-2.1,7.4-5.3,14.1-9.4,20.2
		c-4.2,6.2-9.6,11.3-15.9,15.3C321,186.7,313.4,188.7,304.9,188.7z M202.6,86.5c3.4,0,7.3,0.3,11.6,1c4.2,0.7,8.4,1.7,12.6,2.9
		c4.2,1.3,8.3,2.9,12.1,4.9c4.1,2.1,7.5,4.5,10.1,7.2l56.2,56.2c3.2,0,5.9-0.9,8.1-2.7c2.7-2.1,5.1-4.9,6.9-8.1
		c2-3.4,3.4-7.2,4.3-11.2c1-4.1,1.4-7.9,1.4-11.1c0-2.9-0.1-6-0.3-9.3c-0.2-3.2-0.5-6.5-0.9-9.8s-1-6.5-1.6-9.6
		c-0.6-3-1.4-5.8-2.3-8.4l-42-113.9c-0.5-1.4-1.2-2.2-2.3-2.8c-2.3-1.2-4.6-2.2-6.9-3.2l-3.8-1.5v-12.5c-5.6-2.2-11.3-3.8-17.2-4.8
		c-7.3-1.3-14.7-1.9-21.9-1.9c-1.9,0-3.7,0.4-5.5,1.3c-2.6,1.2-5.2,2.6-7.9,4c-3,1.6-6.3,3.1-9.7,4.4c-3.9,1.5-8.3,2.3-13,2.3h-66.2
		c-4.7,0-9.1-0.8-13-2.3c-3.4-1.3-6.6-2.8-9.7-4.4c-2.7-1.4-5.4-2.8-7.9-4c-1.8-0.9-3.6-1.3-5.5-1.3c-7.3,0-14.6,0.6-21.9,1.9
		c-5.9,1-11.6,2.6-17.2,4.8v12.5l-3.8,1.5c-2.3,0.9-4.6,2-6.9,3.2c-1.1,0.6-1.8,1.4-2.3,2.7l-42.1,114c-0.9,2.6-1.7,5.5-2.3,8.4
		c-0.7,3.1-1.2,6.3-1.6,9.6c-0.4,3.3-0.7,6.6-0.9,9.8c-0.2,3.3-0.3,6.4-0.3,9.3c0,3.3,0.5,7,1.4,11.1c0.9,4,2.4,7.7,4.3,11.2
		c1.9,3.2,4.2,6,6.9,8.1c2.3,1.8,4.9,2.6,8.1,2.7L66,102.5c2.7-2.7,6.1-5.1,10.1-7.2c3.8-2,7.9-3.6,12.1-4.9
		c4.1-1.3,8.3-2.2,12.5-2.9c4.2-0.7,8.1-1,11.7-1H202.6z M154.5,11.3c-4.8,0-9.2-1.8-12.7-5.3s-5.3-7.9-5.3-12.7s1.8-9.2,5.3-12.7
		s7.9-5.3,12.7-5.3s9.2,1.8,12.7,5.3s5.3,7.9,5.3,12.7s-1.8,9.2-5.3,12.7C163.7,9.4,159.3,11.3,154.5,11.3z"/>
</g>
<g>
	<path class="st2" d="M386.8,285.7c-9.4-13.6-21-25.8-34.5-36.3c-9.9-7.7-21-14.2-33.1-19.5l-7.3-3.2l6.5-4.6
		c5.1-3.6,9.9-7.6,14.4-12c7.5-7.3,14.1-15.7,19.6-24.9c5.3-9,9.5-18.7,12.4-29c2.9-10.5,4.4-21.2,4.4-31.9c0-16.4-3.1-32-9.3-46.5
		c-6.2-14.5-14.8-27.3-25.5-37.9C323.7,29,311,20.4,296.6,14.2c-14.5-6.2-30.2-9.3-46.5-9.3c-16.4,0-32,3.1-46.5,9.3
		c-14.5,6.2-27.3,14.8-37.9,25.5c-10.8,10.8-19.4,23.5-25.6,37.9c-6.2,14.5-9.3,30.2-9.3,46.5c0,11,1.5,21.7,4.3,32
		c2.8,10.1,7,20,12.5,29.2c5.5,9.2,12.1,17.6,19.6,24.8c4.4,4.3,9.3,8.3,14.8,12.1l6.6,4.5l-7.3,3.3c-11.9,5.3-23,12-33,19.7
		c-13.5,10.4-25.1,22.5-34.5,36c-9.5,13.7-17,28.7-22.1,44.8c-5.2,16.2-7.8,33.4-7.8,51v2.3h27.9v-2.3c0-12.8,1.6-25.2,4.9-37.1
		c3.2-11.9,7.9-23,13.8-33.2c5.7-9.9,12.9-19.3,21.4-27.9c8.4-8.4,17.8-15.6,28-21.4c10.3-5.9,21.5-10.6,33.2-13.7
		c11.9-3.2,24.3-4.9,37.1-4.9c19.7,0,38.2,3.5,54.8,10.6c17,7.1,31.7,16.9,43.8,29.1c12.2,12.2,22,26.9,29.1,43.7
		c7,16.7,10.6,35.1,10.6,54.8v2.3h27.9v-2.3c0.1-17.5-2.4-34.7-7.5-51C403.6,314.5,396.2,299.3,386.8,285.7z M285.7,208.3
		c-10.9,4.8-23.2,7.2-35.5,7.2c-12.3,0-24.6-2.4-35.5-7.2c-11-4.8-20.8-11.4-29-19.6c-8.2-8.2-14.8-18-19.6-29
		c-4.8-10.9-7.3-22.9-7.3-35.5c0-12.6,2.5-24.6,7.3-35.5c4.8-11,11.4-20.8,19.6-29c8.2-8.2,18-14.8,29-19.6c11-4.8,23-7.2,35.5-7.2
		c12.6,0,24.5,2.4,35.5,7.2c11,4.8,20.8,11.4,29,19.6s14.8,18,19.6,29c4.8,11.1,7.2,23.1,7.2,35.5c0,12.6-2.4,24.5-7.2,35.5
		c-4.8,11-11.4,20.8-19.6,29C306.5,196.9,296.7,203.5,285.7,208.3z"/>
</g>
</svg>
